<svg width="89" height="89" xmlns="http://www.w3.org/2000/svg" xmlns:xlink="http://www.w3.org/1999/xlink" xml:space="preserve" overflow="hidden"><defs><clipPath id="clip0"><rect x="0" y="0" width="89" height="89"/></clipPath></defs><g clip-path="url(#clip0)"><path d="M38.181 88.021C28.213 86.597 19.669 81.969 12.46 74.226 4.272 65.415 0.712 56.426 0.712 44.5 0.623 27.412 10.324 12.282 26.077 4.895 54.913-8.811 88.288 12.46 88.288 44.5 88.288 56.604 84.728 65.504 76.273 74.493 66.305 85.084 52.243 90.068 38.181 88.021ZM30.26 67.195C30.26 66.127 31.595 65.86 36.935 65.86 42.275 65.86 43.61 66.127 43.61 67.195 43.61 67.907 44.055 68.53 44.5 68.53 45.034 68.53 45.657 67.907 45.924 67.195 46.369 66.216 47.971 65.86 52.599 65.86 57.494 65.86 58.74 66.127 58.74 67.195 58.74 67.907 59.363 68.53 60.075 68.53 60.876 68.53 61.677 67.907 61.944 67.195 62.3 66.394 63.635 65.86 65.059 65.86 66.928 65.86 67.729 65.326 68.085 63.902 68.352 62.745 68.441 52.688 68.352 41.385L68.085 20.915 44.767 20.648 21.36 20.47 21.36 43.165 21.36 65.86 24.475 65.86C26.611 65.86 27.59 66.305 27.59 67.195 27.59 67.907 28.213 68.53 28.925 68.53 29.637 68.53 30.26 67.907 30.26 67.195Z" fill="#0096FF" transform="matrix(1 0 0 -1 0 89)"/><path d="M24.92 55.18C24.92 53.489 25.543 53.4 44.5 53.4 63.457 53.4 64.08 53.489 64.08 55.18 64.08 56.871 63.457 56.96 44.5 56.96 25.543 56.96 24.92 56.871 24.92 55.18Z" fill="#0096FF" transform="matrix(1 0 0 -1 0 89)"/><path d="M24.92 44.945C24.92 42.097 25.098 41.83 27.59 41.83 30.082 41.83 30.26 42.097 30.26 44.945 30.26 47.793 30.082 48.06 27.59 48.06 25.098 48.06 24.92 47.793 24.92 44.945Z" fill="#0096FF" transform="matrix(1 0 0 -1 0 89)"/><path d="M32.93 44.945C32.93 42.008 33.108 41.83 36.045 41.83 38.982 41.83 39.16 42.008 39.16 44.945 39.16 47.882 38.982 48.06 36.045 48.06 33.108 48.06 32.93 47.882 32.93 44.945Z" fill="#0096FF" transform="matrix(1 0 0 -1 0 89)"/><path d="M41.83 44.945C41.83 42.097 42.008 41.83 44.5 41.83 46.992 41.83 47.17 42.097 47.17 44.945 47.17 47.793 46.992 48.06 44.5 48.06 42.008 48.06 41.83 47.793 41.83 44.945Z" fill="#0096FF" transform="matrix(1 0 0 -1 0 89)"/><path d="M49.84 44.945C49.84 42.008 50.018 41.83 52.955 41.83 55.892 41.83 56.07 42.008 56.07 44.945 56.07 47.882 55.892 48.06 52.955 48.06 50.018 48.06 49.84 47.882 49.84 44.945Z" fill="#0096FF" transform="matrix(1 0 0 -1 0 89)"/><path d="M58.74 44.945C58.74 42.097 58.918 41.83 61.41 41.83 63.902 41.83 64.08 42.097 64.08 44.945 64.08 47.793 63.902 48.06 61.41 48.06 58.918 48.06 58.74 47.793 58.74 44.945Z" fill="#0096FF" transform="matrix(1 0 0 -1 0 89)"/><path d="M24.92 36.045C24.92 33.197 25.098 32.93 27.59 32.93 30.082 32.93 30.26 33.197 30.26 36.045 30.26 38.893 30.082 39.16 27.59 39.16 25.098 39.16 24.92 38.893 24.92 36.045Z" fill="#0096FF" transform="matrix(1 0 0 -1 0 89)"/><path d="M32.93 36.045C32.93 33.108 33.108 32.93 36.045 32.93 38.982 32.93 39.16 33.108 39.16 36.045 39.16 38.982 38.982 39.16 36.045 39.16 33.108 39.16 32.93 38.982 32.93 36.045Z" fill="#0096FF" transform="matrix(1 0 0 -1 0 89)"/><path d="M41.83 36.045C41.83 33.197 42.008 32.93 44.5 32.93 46.992 32.93 47.17 33.197 47.17 36.045 47.17 38.893 46.992 39.16 44.5 39.16 42.008 39.16 41.83 38.893 41.83 36.045Z" fill="#0096FF" transform="matrix(1 0 0 -1 0 89)"/><path d="M49.84 36.045C49.84 33.108 50.018 32.93 52.955 32.93 55.892 32.93 56.07 33.108 56.07 36.045 56.07 38.982 55.892 39.16 52.955 39.16 50.018 39.16 49.84 38.982 49.84 36.045Z" fill="#0096FF" transform="matrix(1 0 0 -1 0 89)"/><path d="M58.74 36.045C58.74 33.197 58.918 32.93 61.41 32.93 63.902 32.93 64.08 33.197 64.08 36.045 64.08 38.893 63.902 39.16 61.41 39.16 58.918 39.16 58.74 38.893 58.74 36.045Z" fill="#0096FF" transform="matrix(1 0 0 -1 0 89)"/><path d="M24.92 27.145C24.92 24.297 25.098 24.03 27.59 24.03 30.082 24.03 30.26 24.297 30.26 27.145 30.26 29.993 30.082 30.26 27.59 30.26 25.098 30.26 24.92 29.993 24.92 27.145Z" fill="#0096FF" transform="matrix(1 0 0 -1 0 89)"/><path d="M32.93 27.145C32.93 24.208 33.108 24.03 36.045 24.03 38.982 24.03 39.16 24.208 39.16 27.145 39.16 30.082 38.982 30.26 36.045 30.26 33.108 30.26 32.93 30.082 32.93 27.145Z" fill="#0096FF" transform="matrix(1 0 0 -1 0 89)"/><path d="M41.83 27.145C41.83 24.297 42.008 24.03 44.5 24.03 46.992 24.03 47.17 24.297 47.17 27.145 47.17 29.993 46.992 30.26 44.5 30.26 42.008 30.26 41.83 29.993 41.83 27.145Z" fill="#0096FF" transform="matrix(1 0 0 -1 0 89)"/><path d="M49.84 27.145C49.84 24.208 50.018 24.03 52.955 24.03 55.892 24.03 56.07 24.208 56.07 27.145 56.07 30.082 55.892 30.26 52.955 30.26 50.018 30.26 49.84 30.082 49.84 27.145Z" fill="#0096FF" transform="matrix(1 0 0 -1 0 89)"/><path d="M58.74 27.145C58.74 24.297 58.918 24.03 61.41 24.03 63.902 24.03 64.08 24.297 64.08 27.145 64.08 29.993 63.902 30.26 61.41 30.26 58.918 30.26 58.74 29.993 58.74 27.145Z" fill="#0096FF" transform="matrix(1 0 0 -1 0 89)"/></g></svg>